<mxfile host="app.diagrams.net" modified="2024-06-06T19:03:19.939Z" agent="Mozilla/5.0 (Windows NT 10.0; Win64; x64) AppleWebKit/537.36 (KHTML, like Gecko) Chrome/125.0.0.0 Safari/537.36" version="24.4.13" etag="0nB2ScYF_xp4O_vW6kpf" type="github">
  <diagram name="第 1 页" id="ZR3tku6N-Ea3oJvWe4zo">
    <mxGraphModel>
      <root>
        <mxCell id="0" />
        <mxCell id="1" parent="0" />
      </root>
    </mxGraphModel>
  </diagram>
</mxfile>
